<?xml version="1.0" encoding="UTF-8"?>
<svg id="Camada_2" data-name="Camada 2" xmlns="http://www.w3.org/2000/svg" viewBox="0 0 949.77 279.49">
  <g id="Camada_1-2" data-name="Camada 1">
    <g>
      <path d="M292.29,35.72l-67.61,224.06c-3.61,11.98-14.61,19.71-26.51,19.71-2.65,0-5.35-.38-8.02-1.19-14.64-4.42-22.94-19.88-18.52-34.53L239.24,19.71C242.85,7.73,253.86.01,265.76,0c2.65,0,5.34.39,8.01,1.19,14.65,4.42,22.94,19.88,18.52,34.53Z" fill="#ededed"/>
      <path d="M153.33,246.72c-5.41,5.41-12.48,8.12-19.59,8.12s-14.18-2.71-19.59-8.12l-58.31-58.31.33,38.49c.16,15.29-12.16,27.8-27.45,27.93h-.26c-15.19,0-27.54-12.26-27.67-27.48l-.78-87.88v-.49L.75,53.04c.13-15.29,12.71-27.71,27.93-27.45,15.32.13,27.61,12.65,27.48,27.93l-.33,36.57,56.39-56.39c10.82-10.82,28.36-10.82,39.18,0,10.82,10.82,10.82,28.36,0,39.18l-66.36,66.36,68.29,68.29c10.82,10.82,10.82,28.36,0,39.18Z" fill="#ededed"/>
      <path d="M834.18,254.83c-7.09,0-14.18-2.71-19.59-8.12-10.82-10.82-10.82-28.36,0-39.18l68.29-68.3-66.36-66.36c-10.82-10.82-10.82-28.36,0-39.18,10.82-10.82,28.36-10.82,39.18,0l85.96,85.96c10.82,10.82,10.82,28.36,0,39.18l-87.89,87.89c-5.41,5.41-12.5,8.12-19.59,8.12Z" fill="#ededed"/>
      <path d="M533.77,248.54c-2.52,0-5.03-.37-7.46-1.11-13.61-4.11-21.34-18.52-17.24-32.13l51.72-171.41c3.26-10.8,13.41-18.34,24.68-18.34,2.52,0,5.02.37,7.45,1.1,13.61,4.11,21.34,18.52,17.24,32.13l-51.72,171.41c-3.26,10.8-13.41,18.34-24.68,18.34Z" fill="#ededed"/>
      <path d="M284.77,248.55c-2.52,0-5.03-.37-7.46-1.11-13.61-4.11-21.34-18.52-17.24-32.13l51.72-171.41c3.26-10.8,13.41-18.34,24.68-18.34,2.52,0,5.02.37,7.45,1.1,13.61,4.11,21.34,18.52,17.24,32.13l-51.72,171.41c-3.26,10.8-13.41,18.34-24.68,18.34Z" fill="#ededed"/>
      <path d="M260.25,230.8c-.78-2.39-1.21-4.89-1.27-7.43-.33-14.21,10.97-26.04,25.18-26.37h99.1c11.28-.25,21.6,7.05,25.11,17.76.78,2.39,1.21,4.89,1.27,7.42.33,14.21-10.97,26.05-25.18,26.38h-99.1c-11.28.26-21.6-7.04-25.11-17.76Z" fill="#ededed"/>
      <path d="M535.64,57.82l-52.38,173.7c-3.32,11.05-13.72,18.74-25.23,18.74-.23,0-.46,0-.68-.03-.23.03-.42.03-.65.03-11.54,0-21.9-7.69-25.23-18.74l-52.41-173.7c-2.05-6.75-1.34-13.85,1.99-20.08,3.36-6.19,8.9-10.76,15.65-12.78,13.92-4.2,28.65,3.72,32.86,17.63l27.84,92.21,27.8-92.21c4.17-13.92,18.94-21.84,32.86-17.63,6.75,2.02,12.29,6.58,15.61,12.78,3.32,6.23,4.04,13.33,1.99,20.08Z" fill="#ededed"/>
      <path d="M793.89,57.82l-52.38,173.7c-3.36,11.05-13.72,18.74-25.26,18.74-.23,0-.42,0-.65-.03-.23.03-.42.03-.65.03-11.54,0-21.9-7.69-25.26-18.74l-27.38-90.78-29.27,97.07c-3.36,11.05-13.72,18.77-25.26,18.77-2.57,0-5.12-.39-7.59-1.14-13.92-4.2-21.84-18.94-17.63-32.86l52.38-173.7c.49-1.66,1.14-3.23,1.96-4.69,2.09-8.87,8.7-16.43,18.03-19.23,13.95-4.2,28.68,3.72,32.86,17.63l27.84,92.21,27.8-92.21c4.2-13.92,18.97-21.84,32.89-17.63,13.92,4.2,21.81,18.94,17.6,32.86Z" fill="#ededed"/>
    </g>
  </g>
</svg>