<?xml version="1.0" encoding="UTF-8"?>
<svg id="Camada_2" data-name="Camada 2" xmlns="http://www.w3.org/2000/svg" viewBox="0 0 867.02 279.49">
  <g id="Camada_1-2" data-name="Camada 1">
    <g>
      <path d="M153.33,246.25c-5.41,5.41-12.48,8.12-19.59,8.12s-14.18-2.71-19.59-8.12l-58.31-58.31.33,38.49c.16,15.29-12.16,27.8-27.45,27.93h-.26c-15.19,0-27.54-12.26-27.67-27.48l-.78-87.88v-.49L.75,52.57c.13-15.29,12.71-27.71,27.93-27.45,15.32.13,27.61,12.65,27.48,27.93l-.33,36.57,56.39-56.39c10.82-10.82,28.36-10.82,39.18,0,10.82,10.82,10.82,28.36,0,39.18l-66.36,66.36,68.29,68.29c10.82,10.82,10.82,28.36,0,39.18Z" fill="#a4a0be"/>
      <path d="M326.18,254.37c-7.09,0-14.18-2.71-19.59-8.12-10.82-10.82-10.82-28.36,0-39.18l68.29-68.3-66.36-66.36c-10.82-10.82-10.82-28.36,0-39.18,10.82-10.82,28.36-10.82,39.18,0l85.96,85.96c10.82,10.82,10.82,28.36,0,39.18l-87.89,87.89c-5.41,5.41-12.5,8.12-19.59,8.12Z" fill="#a4a0be"/>
      <path d="M196.17,279.49c-2.65,0-5.35-.38-8.02-1.19-14.65-4.42-22.94-19.88-18.52-34.53L237.24,19.71c4.42-14.65,19.88-22.93,34.53-18.52,14.65,4.42,22.94,19.88,18.52,34.53l-67.6,224.06c-3.61,11.98-14.62,19.71-26.51,19.71Z" fill="#a4a0be"/>
      <path d="M683.06,57.36l-52.41,173.7c-3.32,11.05-13.69,18.74-25.23,18.74-2.57,0-5.15-.36-7.63-1.11-13.92-4.2-21.81-18.94-17.63-32.86l52.41-173.7c4.2-13.92,18.94-21.84,32.86-17.63,6.75,2.05,12.29,6.58,15.61,12.78,3.32,6.23,4.04,13.33,2.02,20.08Z" fill="#a4a0be"/>
      <path d="M607.64,57.36l-52.38,173.7c-3.32,11.05-13.72,18.74-25.23,18.74-.23,0-.46,0-.68-.03-.23.03-.42.03-.65.03-11.54,0-21.9-7.69-25.23-18.74l-52.41-173.7c-2.05-6.75-1.34-13.85,1.99-20.08,3.36-6.19,8.9-10.76,15.65-12.78,13.92-4.2,28.65,3.72,32.86,17.63l27.84,92.21,27.8-92.21c4.17-13.92,18.94-21.84,32.86-17.63,6.75,2.02,12.29,6.58,15.61,12.78,3.32,6.23,4.04,13.33,1.99,20.08Z" fill="#a4a0be"/>
      <path d="M865.89,57.36l-52.38,173.7c-3.36,11.05-13.72,18.74-25.26,18.74-.23,0-.42,0-.65-.03-.23.03-.42.03-.65.03-11.54,0-21.9-7.69-25.26-18.74l-27.38-90.78-29.27,97.07c-3.36,11.05-13.72,18.77-25.26,18.77-2.57,0-5.12-.39-7.59-1.14-13.92-4.2-21.84-18.94-17.63-32.86l52.38-173.7c.49-1.66,1.14-3.23,1.96-4.69,2.09-8.87,8.7-16.43,18.03-19.23,13.95-4.2,28.68,3.72,32.86,17.63l27.84,92.21,27.8-92.21c4.2-13.92,18.97-21.84,32.89-17.63,13.92,4.2,21.81,18.94,17.6,32.86Z" fill="#a4a0be"/>
    </g>
  </g>
</svg>